<?xml version="1.0" encoding="utf-8"?>
<!-- Generator: Adobe Illustrator 24.2.1, SVG Export Plug-In . SVG Version: 6.00 Build 0)  -->
<svg version="1.1" id="CrystalBall" xmlns="http://www.w3.org/2000/svg" xmlns:xlink="http://www.w3.org/1999/xlink" x="0px"
	 y="0px" viewBox="0 0 140.8 165.4" style="enable-background:new 0 0 140.8 165.4;" xml:space="preserve">
<style type="text/css">
	.st0{fill:none;stroke:#000000;stroke-width:12;stroke-linecap:round;stroke-linejoin:bevel;stroke-miterlimit:10;}
	.st1{stroke:#000000;stroke-width:6;stroke-linejoin:round;stroke-miterlimit:10;}
	.st2{fill:none;stroke:#000000;stroke-width:10;stroke-linecap:square;stroke-linejoin:round;stroke-miterlimit:10;}

	#Curve, #BtmSparkle, #TopSparkle, #Crystal, #Base{
		stroke: #fff4de;
	}
</style>
<path id="Curve" class="st0" d="M33.4,60.5c-0.7,3.6-2.6,16.1,4.5,29.1c8.6,15.7,23.9,20.2,26.8,21"/>
<path id="BtmSparkle" class="st1" d="M94.6,63.2c1.4,3.6,2.8,7.3,4.2,10.9c3.4,1.1,6.7,2.2,10.1,3.4c-3.4,1.5-6.7,3-10.1,4.6
	c-1.4,3.2-2.8,6.5-4.2,9.7c-1.3-3.3-2.6-6.7-3.8-10c-3.5-1.4-6.9-2.8-10.4-4.2c3.5-1.2,6.9-2.4,10.4-3.6
	C92.1,70.4,93.3,66.8,94.6,63.2z"/>
<path id="TopSparkle" class="st1" d="M67.6,29.4c1.4,3.6,2.8,7.3,4.2,10.9c3.4,1.1,6.7,2.2,10.1,3.4c-3.4,1.5-6.7,3-10.1,4.6
	c-1.4,3.2-2.8,6.5-4.2,9.7c-1.3-3.3-2.6-6.7-3.8-10c-3.5-1.4-6.9-2.8-10.4-4.2c3.5-1.2,6.9-2.4,10.4-3.6
	C65,36.5,66.3,32.9,67.6,29.4z"/>
<circle id="Crystal" class="st2" cx="70.4" cy="70.3" r="64.7"/>
<path id="Base" class="st0" d="M38.8,127.8l-13.5,32.9h90.3l-11.8-32.9c-5,3-16,8.9-31.3,9.5c-16.7,0.6-29.1-5.5-34.2-8.4"/>
</svg>
