<?xml version="1.0" encoding="utf-8"?>
<!-- Generator: Adobe Illustrator 24.2.1, SVG Export Plug-In . SVG Version: 6.00 Build 0)  -->
<svg version="1.1" id="HandBall" xmlns="http://www.w3.org/2000/svg" xmlns:xlink="http://www.w3.org/1999/xlink" x="0px" y="0px"
	 viewBox="0 0 271.4 198.4" style="enable-background:new 0 0 271.4 198.4;" xml:space="preserve">
<style type="text/css">
	.st0{fill:none;stroke:#000000;stroke-width:12;stroke-linecap:round;stroke-linejoin:bevel;stroke-miterlimit:10;}
	.st1{stroke:#000000;stroke-width:6;stroke-linejoin:round;stroke-miterlimit:10;}
	.st2{fill:none;stroke:#000000;stroke-width:10;stroke-linecap:square;stroke-linejoin:round;stroke-miterlimit:10;}

	#Curve, #BtmSparkle, #TopSparkle, #Crystal, #Base, #Hand{
		stroke: #fff4de;
	}
	#Hand{
		fill: #fff4de;
	}
</style>
<path id="Curve" class="st0" d="M164.1,92.7c-0.7,3.6-2.6,16.1,4.5,29.1c8.6,15.7,23.9,20.2,26.8,21"/>
<path id="BtmSparkle" class="st1" d="M225.4,95.4c1.4,3.6,2.8,7.3,4.2,10.9c3.4,1.1,6.7,2.2,10.1,3.4c-3.4,1.5-6.7,3-10.1,4.6
	c-1.4,3.2-2.8,6.5-4.2,9.7c-1.3-3.3-2.6-6.7-3.9-10c-3.5-1.4-6.9-2.8-10.4-4.2c3.5-1.2,6.9-2.4,10.4-3.6
	C222.8,102.6,224.1,99,225.4,95.4z"/>
<path id="TopSparkle" class="st1" d="M198.4,61.6c1.4,3.6,2.8,7.3,4.2,10.9c3.4,1.1,6.7,2.2,10.1,3.4c-3.4,1.5-6.7,3-10.1,4.6
	c-1.4,3.2-2.8,6.5-4.2,9.7c-1.3-3.3-2.6-6.7-3.9-10c-3.5-1.4-6.9-2.8-10.4-4.2c3.5-1.2,6.9-2.4,10.4-3.6
	C195.8,68.7,197.1,65.1,198.4,61.6z"/>
<circle id="Crystal" class="st2" cx="201.2" cy="102.5" r="64.7"/>
<path id="Base" class="st0" d="M169.5,160l-13.5,32.9h90.3L234.5,160c-5,3.1-16,8.9-31.3,9.5c-16.7,0.6-29.1-5.5-34.2-8.4"/>
<path id="Hand" d="M216.2,6.2c-0.1,1.9-0.7,5.3-3.5,8.9c-5.3,6.9-14.3,8.4-15.9,8.6c-14.7,1.3-29.3,2.6-44,3.9
	c-14.5,22.7-29.1,45.4-43.6,68.2c0.2,7.7,0.3,15.5,0.5,23.2c3.5,10.5,7.1,21,10.6,31.6c0.3,1.1,1.9,7.6-1.2,13.6
	c-1.6,3.1-3.8,4.8-5,5.6c-7.3-14-14.5-28.1-21.8-42.1c-0.3-11.2-0.7-22.5-1-33.7l-3.9-0.9c0.6,11,1.2,22,1.7,33
	c3.9,10.4,7.7,20.7,11.6,31.1c0.3,1.1,2.1,7.5-0.8,13.7c-1.5,3.2-3.6,5-4.8,5.9L72,135.7c-1-15.5-2-31-2.9-46.6l-3.6-0.8
	c0.6,12.8,1.2,25.5,1.8,38.3c3.5,10.3,7,20.6,10.5,30.9c0.3,1.1,1.9,7.5-0.7,13.8c-1.3,3.3-3.3,5.1-4.3,6.1
	c-7-13.5-13.9-27-20.9-40.6c-0.7-10.2-1.3-20.5-1.9-30.7c-5.6,4.9-11.7,10.1-18.4,15.3c-4.5,3.6-10.5,8.1-19.2,9.1
	c-5.1,0.6-9.5-0.3-12.4-1.1l49.2-46c13-21.6,25.8-43.9,38.2-67c2.1-3.9,4.2-7.8,6.3-11.7c5-1.3,10.5-2.5,16.3-3.3
	c19.7-2.8,37.2-1.2,51,1.7C179.4,4.2,197.8,5.2,216.2,6.2z"/>
</svg>
