<?xml version="1.0" encoding="utf-8"?>
<!-- Generator: Adobe Illustrator 24.2.1, SVG Export Plug-In . SVG Version: 6.00 Build 0)  -->
<svg version="1.1" id="MagicRock" xmlns="http://www.w3.org/2000/svg" xmlns:xlink="http://www.w3.org/1999/xlink" x="0px" y="0px"
	 viewBox="0 0 182.7 235.7" style="enable-background:new 0 0 182.7 235.7;" xml:space="preserve">
<style type="text/css">
	.st0{fill:none;stroke:#000000;stroke-width:12;stroke-linecap:square;stroke-linejoin:bevel;stroke-miterlimit:10;}
	.st1{fill:none;stroke:#000000;stroke-width:10;stroke-linejoin:round;stroke-miterlimit:10;}
	.st2{fill:none;stroke:#000000;stroke-width:10;stroke-linecap:square;stroke-linejoin:round;stroke-miterlimit:10;}
	.st3{fill:none;stroke:#000000;stroke-width:6;stroke-linejoin:round;stroke-miterlimit:10;}

	#Right, #Left, #LowerPoint, #UpperPoint, #LowerFacet, #UpperFacet, #MiddleFacet, #SparkleR, #SparkleL{
		stroke: #fff4de;
	}

</style>
<line id="Right" class="st0" x1="149.5" y1="107.4" x2="122.2" y2="164.7"/>
<line id="Left" class="st0" x1="67.4" y1="68.3" x2="40.2" y2="125.6"/>
<polyline id="LowerPoint" class="st1" points="31.6,143.1 23.4,160.4 39.7,230.9 105.4,199.5 113.6,182.2 "/>
<polyline id="UpperPoint" class="st1" points="156.2,92.9 164.4,75.6 148.1,5.1 82.4,36.5 74.2,53.8 "/>
<polyline id="LowerFacet" class="st2" points="91.9,173.8 79.9,147.9 51.8,154.7 "/>
<polyline id="UpperFacet" class="st2" points="92,69.9 104,95.9 132.1,89 "/>
<line id="MiddleFacet" class="st0" x1="104.2" y1="96" x2="79.6" y2="147.7"/>
<path id="SparkleR" class="st3" d="M156.1,171.5c2.3,5.9,4.5,11.8,6.8,17.7c5.5,1.8,10.9,3.6,16.4,5.5c-5.5,2.5-10.9,4.9-16.4,7.4
	c-2.3,5.3-4.5,10.5-6.8,15.8c-2.1-5.4-4.2-10.9-6.3-16.3c-5.6-2.3-11.3-4.6-16.9-6.9c5.6-1.9,11.3-3.9,16.9-5.8
	C151.9,183.1,154,177.3,156.1,171.5z"/>
<path id="SparkleL" class="st3" d="M26.1,21.9c2.3,5.9,4.5,11.8,6.8,17.7c5.5,1.8,10.9,3.6,16.4,5.5c-5.5,2.5-10.9,5-16.4,7.4
	c-2.3,5.3-4.5,10.5-6.8,15.8C24,62.9,22,57.5,19.9,52c-5.6-2.3-11.3-4.6-16.9-6.9c5.6-1.9,11.3-3.9,16.9-5.8
	C22,33.5,24,27.7,26.1,21.9z"/>
</svg>
